<?xml version="1.0" encoding="UTF-8"?>
<svg version="1.1" viewBox="0 0 735 202" xmlns="http://www.w3.org/2000/svg">
 <g transform="translate(0 -850.36)">
  <g transform="translate(609.88 -675.53)">
   <g transform="translate(-10.102 234)">
    <path d="m-527.71 1437.5c-15.827-2.0743-33.984-12.945-44.194-26.46-9.7566-12.915-14.265-25.579-14.291-40.145-0.0235-12.938 3.7723-22.53 13.397-33.855l2.5495-3-2.1278 6c-1.6229 4.5764-2.131 8.3726-2.1414 16-0.0174 12.763 3.145 23.098 10.374 33.907 12.982 19.41 33.423 31.213 55.934 32.298 17.219 0.8297 29.931-3.2405 40.687-13.026l5.6916-5.1785-2.3388 4.1884c-12.485 22.358-35.475 32.95-63.54 29.272zm16.482-39.936c-6.1875-1.5773-12.314-4.6494-18.715-9.3846-7.1286-5.2734-11.189-10.371-15.643-19.64-2.9149-6.0657-3.1236-7.235-3.1236-17.5 0-10.56 0.13164-11.24 3.2951-17 1.8123-3.3 4.3971-7.35 5.744-9l2.4489-3-2.0953 5.5c-1.7069 4.4806-2.0202 7.1052-1.6903 14.16 0.35422 7.5748 0.88418 9.6301 4.2274 16.395 11.873 24.024 41.063 35.89 63.015 25.618 3.4967-1.6363 8.1791-4.7966 10.405-7.0229 4.5941-4.5942 4.3941-3.0499-0.59254 4.5734-3.9508 6.0399-11.076 11.621-18.539 14.52-5.8626 2.2781-22.695 3.3212-28.738 1.7808zm12.018-36.593c-6.8213-3.1615-12.367-8.4008-15.805-14.931-3.5267-6.7-3.7168-16.951-0.4299-23.182 2.839-5.3821 4.4112-6.4204 3.1703-2.0937-2.4027 8.3776 0.85107 17.787 8.9523 25.888 6.7148 6.7148 14.123 9.888 23.084 9.888 6.983 0 10.494-1.1709 14.432-4.8136 3.1494-2.9127 2.7324-1.6211-1.1852 3.6712-5.9473 8.0343-21.213 10.675-32.22 5.5738z" fill="#74b042"/>
   </g>
   <path d="m-157.65 1715.3c0.0119-0.6875 0.91191-5.2772 2-10.199 1.0881-4.9222 1.9784-9.5347 1.9784-10.25v-1.3007h-2.8128l0.52301-2 0.52301-2h2.7399l1.4288-3.4195 1.4288-3.4195 2.1433-1.1471 2.1433-1.147 2.9414 0.646 2.9414 0.646-0.0153 1.1706c-8e-3 0.6438-0.34592 1.6876-0.75 2.3197l-0.73469 1.1492-2.4217 0.3508-2.4217 0.3508-0.41167 1.25-0.41166 1.25h5.3806l-0.60699 1.5818c-0.33385 0.87-0.60699 1.77-0.60699 2-1e-5 0.23-1.0947 0.4182-2.4326 0.4182h-2.4326l-0.54164 1.75c-0.2979 0.9625-1.2006 4.9105-2.006 8.7733-0.80537 3.8628-1.9308 8.2503-2.501 9.75l-1.0367 2.7267h-4.0496l0.0216-1.25z" fill="#74b042"/>
   <path d="m-281.57 1699.8c1.0456-4.7847 1.901-8.9967 1.901-9.3601v-0.6608l5.7086-0.5892 5.7086-0.5892 1.0414 0.8257 1.0414 0.8257 2-0.8061c1.1-0.4434 3.0021-0.8378 4.227-0.8764l2.2269-0.07 1.6046 2.4489 1.6046 2.4488-1.1504 5.8012c-0.63271 3.1906-1.3747 6.5886-1.6489 7.5511l-0.49852 1.75h-4.5234l0.89131-6.6526 0.89131-6.6525-1.3122-0.8312c-0.72171-0.4571-1.7622-0.6887-2.3122-0.5146l-1 0.3166-0.30144 1.9172c-0.16579 1.0544-0.76019 4.2796-1.3209 7.1671l-1.0195 5.25h-4.8964l0.46445-2.25c0.25545-1.2375 0.73327-4.332 1.0618-6.8766l0.59737-4.6266-1.7128-0.6573-1.7128-0.6572-0.75089 1.2149c-0.41299 0.6683-1.2874 4.0585-1.9432 7.5339l-1.1923 6.3189h-5.5756l1.901-8.6993z" fill="#74b042"/>
   <path d="m-251.47 1707.3-1.2-1.2 4e-3 -4.55 4e-3 -4.55 1.9484-3.1955 1.9484-3.1956 3.9572-1.1856 3.9572-1.1856 2.5207 0.6327c1.3864 0.3479 3.2271 1.3391 4.0906 2.2025l1.5699 1.57v5.9213l-1.3944 3.3372-1.3944 3.3372-2.3281 1.6307-2.3281 1.6307h-10.155l-1.2-1.2z" fill="#74b042"/>
   <path d="m-240.84 1702.8 2.0506-1.75 0.17532-2c0.0964-1.1 0.12351-2.5322 0.0602-3.1826l-0.11518-1.1826-1.9622-0.6228-1.9622-0.6228-1.9565 1.0471-1.9565 1.0471-0.69959 3.1852-0.69959 3.1852 1.8094 1.3231c2.3378 1.7094 2.7966 1.6721 5.2562-0.4269z" fill="#fff"/>
   <path d="m-230.64 1705.8c0.0196-1.5366 1.0321-7.5188 2.25-13.294l2.2144-10.5 2.3935-0.3384 2.3935-0.3383-0.54397 4.0556-0.54396 4.0556 4.2976-0.5891 4.2976-0.589 1.6349 2.4952 1.6349 2.4952-0.66862 4.1814-0.66863 4.1813-2.1489 3.1953-2.1489 3.1952-7.2145 0.2938-7.2145 0.2938 0.0356-2.7938z" fill="#74b042"/>
   <path d="m-217.65 1700.9c0.53639-1.4108 0.97525-3.4272 0.97525-4.4809v-1.9159l-2.5732-0.6458-2.5732-0.6459-0.8756 0.8768c-0.48158 0.4823-1.1812 2.7893-1.5546 5.1268l-0.679 4.25h6.3052z" fill="#fff"/>
   <path d="m-207.38 1701.3 0.93071-7.2127-1.1119-0.3706-1.1119-0.3707v-3.8333h9.1348l-0.49852 1.75c-0.27419 0.9625-1.0105 4.45-1.6363 7.75-0.62576 3.3-1.3621 6.7875-1.6363 7.75l-0.49852 1.75h-4.5028z" fill="#74b042"/>
   <path d="m-196.84 1685.8 1.0625 0.6563 1.1875 0.75-1.4688 6.9062c-0.81033 3.8011-1.6869 8.5938-1.9688 10.656l-0.53125 3.75h4.6876l1.6875-7.75c0.92469-4.2625 2.2618-10.338 2.9688-13.5l1.2812-5.75h-8.75l-0.0312 1.25c-0.0334 1.0888-0.19421 1.916-0.1249 3.0312z" fill="#74b042"/>
   <path d="m-197.78 1684.4 0.0357-2.125-1.0312-1.75h-3.6563l-1.2188 1.4687-1.25 1.5 0.625 1.6563 0.625 1.625 3.3438-0.5313 1.8125-0.3214z" fill="#74b042"/>
   <path d="m-186.92 1707.4-1.75-1.0193v-7.9648l1.4212-3.4015 1.4212-3.4015 3.0291-1.5664 3.0291-1.5664h5.6544l2.2225 1.5567 2.2225 1.5567v8.8866h-13v3h11v1.3c0 0.715-0.54 1.84-1.2 2.5l-1.2 1.2-5.55-0.03-5.55-0.03-1.75-1.0193z" fill="#74b042"/>
   <path d="m-175.35 1694.9-0.53677-1.3988h-1.3112c-0.72117 0-2.023 0.2731-2.893 0.607l-1.5818 0.607v2.3844l3.4298-0.4004 3.4298-0.4004z" fill="#fff"/>
   <path d="m-141.36 1699.2 1.968-9.4244 5.5666-0.5745 5.5666-0.5746 1.2913 1.0718 1.2914 1.0717v6.7551h-5.9372l0.52609-1.371 0.52608-1.3709-1.7006-0.6526c-2.2502-0.8635-2.2136-0.9247-4.1946 7.0081l-1.7197 6.8864-2.576 0.2996-2.576 0.2997z" fill="#74b042"/>
   <path d="m-123.47 1707.3-1.2043-1.2043v-7.6642l1.4165-3.3901 1.4165-3.3901 2.6128-1.712 2.6129-1.7121 5.6694 0.6664c3.1182 0.3664 5.8495 0.8463 6.0695 1.0664 0.22005 0.22-0.45689 4.3681-1.5043 9.2179l-1.9044 8.8178-6.9902 0.2543-6.9902 0.2542z" fill="#74b042"/>
   <path d="m-111.84 1699.3 1.0773-4.2443-0.88246-0.8825-0.88248-0.8825-2.4955 0.6264-2.4955 0.6263-1.1488 3.4809-1.1488 3.4809 0.63012 1.0196 0.63011 1.0195h5.6387z" fill="#fff"/>
   <path d="m-102.35 1699.1 1.9577-9.3747 5.6047-0.5785 5.6047-0.5784 0.80142 0.8014 0.80142 0.8014 3.9078-1.043 3.9078-1.0431 2.1461 1.9422 2.1461 1.9421-0.60302 4.3996c-0.33166 2.4197-1.0699 6.1334-1.6406 8.2526l-1.0376 3.8532h-4.1814l0.6774-6.8745 0.67739-6.8745-1.7182-0.6594-1.7182-0.6593-0.71811 1.1619c-0.39495 0.639-1.0097 3.3598-1.366 6.046-0.35635 2.6863-0.90483 5.5537-1.2188 6.372l-0.57093 1.4878h-4.4274l0.74772-5.25c0.41124-2.8875 0.78057-5.9894 0.82072-6.893l0.073-1.643-1.67-0.6409-1.67-0.6408-0.65006 1.0518c-0.35753 0.5785-1.2298 3.9687-1.9385 7.5339l-1.2884 6.482h-5.4142z" fill="#74b042"/>
   <path d="m-72.473 1707.3-1.2-1.2 2e-3 -4.05 2e-3 -4.05 1.7484-3.4861 1.7484-3.4861 2.5-1.2491 2.5-1.2492 3.0275-0.015 3.0275-0.015 2.2754 1.5938 2.2754 1.5937-0.30291 4.1563-0.30381 4.1561-6.267 0.5-6.2669 0.5 5e-3 1 5e-3 1 5.5115 0.2999c5.9494 0.3237 6.0224 0.377 4.4763 3.2658l-1.0343 1.9343h-12.53l-1.2-1.2z" fill="#74b042"/>
   <path d="m-60.673 1694.8v-1.4529l-2.7414 0.3164-2.7414 0.3164-0.29968 1.5828-0.29969 1.5829 3.0411-0.4464 3.0411-0.4463z" fill="#fff"/>
   <path d="m-51.461 1699.3 0.28831-9.3094 2.8426-0.3254 2.8426-0.3253-0.34262 5.9827-0.34262 5.9827 0.56978-0.355c0.31338-0.1952 1.4191-2.8535 2.4571-5.9073l1.8873-5.5524h7.5858l0.0554 6.75 0.0554 6.75 2.5581-6.75 2.5581-6.75h4.773v1.0556c0 0.5806-1.6504 4.8556-3.6676 9.5l-3.6675 8.4444h-7.6648l-0.0705-6.25-0.0705-6.25-2.3132 6-2.3132 6-4.1546 0.3094-4.1546 0.3093 0.28831-9.3093z" fill="#74b042"/>
   <path d="m-22.102 1706.9-1.5714-1.5715v-6.7892l1.6692-3.5003 1.6692-3.5003 3.4626-1.6431 3.4626-1.6431 3.6149 0.5866 3.6149 0.5866 1.2533 1.714 1.2533 1.714v6.7492l-1.125 2.1842c-0.61873 1.2014-2.0472 3.1968-3.1743 4.4343l-2.0494 2.25h-10.508z" fill="#74b042"/>
   <path d="m-12.01 1703 2.1082-1.4766 0.65733-2.619 0.65732-2.619-1.1655-1.4043-1.1655-1.4044h-3.4452l-1.5771 1.75c-0.86739 0.9625-1.875 2.944-2.2391 4.4032l-0.66203 2.6533 1.8341 1.0663c2.3943 1.3921 2.5239 1.383 4.9974-0.3495z" fill="#fff"/>
   <path d="m-2.3096 1706.8c0.27399-0.9625 1.2362-5.1778 2.1383-9.3674l1.6401-7.6174 5.6378-0.5819 5.6378-0.5819 1.2914 1.0718 1.2914 1.0717v1.7958c0 0.9876-0.27314 2.5075-0.60699 3.3775l-0.60699 1.5818h-4.5528l-0.55056-2.1054-0.55056-2.1053-1.3161 0.4382-1.3161 0.4382-0.31293 1.9172c-0.17212 1.0544-0.97219 4.2796-1.7779 7.1671l-1.465 5.25h-5.0789z" fill="#74b042"/>
   <path d="m15.327 1707.3c0-0.7205 1.1925-6.8268 2.65-13.57l2.65-12.26h4.9224l-0.58448 3.25c-0.32147 1.7875-0.8854 5.2022-1.2532 7.5882l-0.66871 4.3381 2.3919-0.3381 2.3919-0.3382 1.8324-3.75 1.8324-3.75h3.8352v5.0993l-1.479 2.86c-0.81343 1.573-2.0509 3.0694-2.75 3.3254l-1.271 0.4653 1.25 1.325 1.25 1.325v5.6l-2.25-0.01-2.25-0.01-1.7162-4.0844-1.7161-4.0845-1.215 0.405-1.215 0.405-1.153 3.4396-1.153 3.4396-2.1659 0.3196-2.1659 0.3195v-1.3099z" fill="#74b042"/>
   <path d="m35.507 1706.3 0.31955-2.25 2.3653-0.3347 2.3653-0.3346 0.91745 0.9174 0.91745 0.9175-0.63978 1.6672-0.63977 1.6672h-5.9252z" fill="#74b042"/>
   <path d="m-455.8 1696-0.62345-0.6245 2.5209-10.21c1.3865-5.6154 2.9596-10.772 3.4959-11.46l0.975-1.25h10.846l2.3657-2.3657c1.3012-1.3012 3.2537-4.1137 4.339-6.25l1.9733-3.8843 6.6463-30.542c3.6554-16.798 7.0017-31.873 7.4361-33.5l0.78983-2.9585 13.179-0.279 13.179-0.279v1.7103c0 0.9406-3.3942 17.356-7.5428 36.48l-7.5428 34.769-2.4822 7.2994-2.4822 7.2995-3.4459 5.1908-3.4459 5.1908-4.7791 2.8092-4.7791 2.8092-15 0.3345-15 0.3344-0.62344-0.6246zm325.62-37.17c-14.964-2.9467-17.049-3.7622-22.335-8.7361-4.2466-3.9955-5.6472-6.7347-7.1355-13.956l-1.199-5.8175 1.128-8.6825 1.128-8.6825 2.4677-9.3796 2.4677-9.3796 2.9881-6.261 2.9881-6.261 4.6169-5.1351 4.6169-5.1351 4.2141-2.4696c2.3178-1.3583 6.8782-3.4512 10.134-4.6508l5.9201-2.1811 14.5-0.073 14.5-0.074 5.4097 1.8834 5.4097 1.8834 4.2901 4.2901 4.2901 4.2901 1.6842 5.7933 1.6842 5.7933-0.60052 9.0332-0.60052 9.0332-1.8073 7.5-1.8073 7.5-29.892 0.2651-29.892 0.2652-1.3342 1.1073-1.3342 1.1073v2.3305c0 1.2818 0.53761 3.5104 1.1947 4.9525l1.1947 2.6221 3.0553 1.675 3.0553 1.675 24.25 0.3281 24.25 0.3281-0.0394 2.1719c-0.0217 1.1946-0.87401 6.1659-1.8941 11.047l-1.8547 8.8756-1.3559 0.8591-1.3559 0.8592-22.5-0.1007c-12.375-0.055-23.4-0.2779-24.5-0.4945zm36.5-63.44v-4.0658l-1.0296-1.9239-1.0297-1.9239-2.9207-1.5103-2.9207-1.5104h-12.969l-2.8151 1.0636c-4.8082 1.8167-11.315 9.2274-11.315 12.887v1.0497h35v-4.0657zm-252 62.375c-1.375-0.2302-4.75-1.112-7.5-1.9596l-5-1.5411-5.1513-3.458-5.1513-3.458-2.6463-3.8187c-1.4555-2.1003-3.5806-6.2386-4.7224-9.1962l-2.0761-5.3776-0.49169-9-0.4917-9 1.6802-9 1.6802-9 2.9949-9 2.9949-9 3.6053-6.5 3.6053-6.5 7.7059-7.7421 7.7059-7.7422 6.3791-2.9741c3.5085-1.6358 9.2862-3.7146 12.839-4.6196l6.4603-1.6454 12.54 0.4569 12.54 0.4568 5.7392 2.2227 5.7392 2.2226 4.7608 3.2658 4.7608 3.2658 3.7064 4.8758 3.7064 4.8759 2.2936 6.0406 2.2936 6.0405-0.0539 10.5-0.0539 10.5-2.7465 9c-1.5106 4.95-4.5238 13.872-6.6961 19.828-2.1724 5.9553-3.9497 11.468-3.9497 12.25v1.4223h5.8333c3.2083 0 6.077 0.2436 6.3747 0.5414l0.54136 0.5413-2.7982 10.43c-1.539 5.7367-3.0842 10.893-3.4337 11.459l-0.6355 1.0283-36.191-0.1362c-19.905-0.075-37.316-0.3245-38.691-0.5546zm43.908-31.059c1.0962-3.7125 3.8431-13.275 6.1044-21.25l4.1113-14.5-0.31201-8.5799-0.312-8.5798-2.8839-3.779-2.8839-3.779-4.1161-1.8692-4.1161-1.8692-8-0.012-8-0.012-5 2.3334-5 2.3333-3.8618 4.2835-3.8618 4.2836-2.9536 6.3117-2.9536 6.3118-1.9214 9.3116-1.9214 9.3116 0.0107 4.5c6e-3 2.475 0.42012 6.2652 0.92048 8.4226l0.90977 3.9226 1.8749 2.5774 1.8749 2.5774 4.4033 2.25 4.4034 2.25h31.492l1.9931-6.75zm70.092 31.059c-1.375-0.2302-4.5546-1.0776-7.0658-1.883l-4.5658-1.4646-3.6414-3.7308-3.6414-3.7308-1.6265-4.5-1.6265-4.5-0.0354-8.6725-0.0354-8.6725 5.7865-27.828 5.7865-27.828 0.95498-1.25 0.95497-1.25h22.638l0.5434 0.8792 0.54341 0.8793-5.4844 27.319-5.4844 27.319v10.381l1.75 2.1602 1.75 2.1601 4 0.9268 4 0.9268 7.6276 0.024 7.6276 0.024 1.0338-1.25 1.0338-1.25 7.0993-33c3.9046-18.15 7.5348-34.012 8.0672-35.25l0.96786-2.25h23.042v2.3271c0 1.2799-4.3145 22.54-9.5878 47.245l-9.5878 44.918-1.1622 0.7394-1.1622 0.7395-24-0.1209c-13.2-0.066-25.125-0.3092-26.5-0.5393zm167.41-0.6873-0.52884-1.3781 9.6672-45.372 9.6672-45.372 1.0852-1.3341 1.0852-1.334 31.058 0.3612 31.058 0.3612 3.5821 1.6017 3.5821 1.6016 2.1528 2.7369 2.1528 2.7369 1.0238 3.6343c0.5631 1.9989 1.3024 5.3218 1.6429 7.3843l0.61904 3.75h-57.01l-1.0192 1.25-1.0192 1.25-6.6032 31.715c-3.6318 17.443-6.6032 32.373-6.6032 33.179 0 0.8052-0.70714 2.1711-1.5714 3.0354l-1.5714 1.5714h-21.92l-0.52883-1.3781zm78.052 0.3141-0.6576-1.0641 2.6674-10.752 2.6674-10.752-5.9329-20.653-5.9329-20.653 0.53074-0.5308c0.2919-0.2919 6.5149-0.5307 13.829-0.5307h13.298l0.92322 1.75c0.50777 0.9625 1.4607 4.3626 2.1177 7.5558l1.1945 5.8059 0.87084-0.3059c0.47897-0.1682 9.455-12.906 19.947-28.306s19.824-28.562 20.738-29.25l1.6619-1.25h29.832l-0.52125 1.3583c-0.28668 0.7471-14.851 20.435-32.366 43.75l-31.845 42.392-2.3862 9.5c-1.3124 5.225-2.7866 10.288-3.2759 11.25l-0.88967 1.75h-25.812l-0.65761-1.064zm-426.03-76.1c0.36118-2.3539 1.4268-7.4298 2.368-11.28l1.7113-7 13.25-0.279 13.25-0.279-0.027 1.279c-0.0149 0.7034-1.0374 5.779-2.2722 11.279l-2.2452 10-13.346 0.2798-13.346 0.2799 0.65668-4.2799z" fill="#121b28"/>
  </g>
 </g>
</svg>
